Coordinates
version=1
nRows=21
nColumns=22
inDegrees=yes

Units are S.I. units (second, meters, Newtons, ...)
If the header above contains a line with 'inDegrees', this indicates whether rotational values are in degrees (yes) or radians (no).

endheader
time	pelvis_tilt	pelvis_list	pelvis_rotation	pelvis_tx	pelvis_ty	pelvis_tz	hip_flexion_r	hip_adduction_r	hip_rotation_r	knee_angle_r	ankle_angle_r	subtalar_angle_r	hip_flexion_l	hip_adduction_l	hip_rotation_l	knee_angle_l	ankle_angle_l	subtalar_angle_l	lumbar_extension	lumbar_bending	lumbar_rotation
      0.01000000	     -2.39566383	     -2.67987494	      6.96932000	      0.08354725	      0.94345975	      1.22316960	      3.51456204	      2.64774531	     -9.49325760	     -9.85731160	      9.02737200	      0.87452339	      3.48882577	     -3.16936775	     -5.72155758	    -13.01198066	     12.78344761	     -2.97060015	     -7.31483067	     -0.50207778	     -6.34715628
      0.02000000	     -2.41486237	     -2.68894334	      7.02242661	      0.08392139	      0.94341797	      1.22342954	      3.46448480	      2.68472711	     -9.54222395	     -9.77124186	      9.00787971	      0.84273954	      3.47239296	     -3.19534214	     -5.65973828	    -12.96647419	     12.80716740	     -3.04769864	     -7.31136521	     -0.49235689	     -6.36412811
      0.03000000	     -2.45322496	     -2.68438859	      7.05365161	      0.08435116	      0.94333994	      1.22377331	      3.44662193	      2.70590586	     -9.58065665	     -9.71622093	      9.02209482	      0.83927997	      3.47648967	     -3.21358856	     -5.65823875	    -12.93609004	     12.81188787	     -3.05197297	     -7.29215670	     -0.50413404	     -6.32313833
      0.04000000	     -2.49901722	     -2.69789612	      7.10117479	      0.08481812	      0.94324561	      1.22414171	      3.42107335	      2.75174740	     -9.62093698	     -9.63226045	      9.03325291	      0.81899034	      3.48455762	     -3.24904312	     -5.59463697	    -12.89271459	     12.82580723	     -3.04856268	     -7.26931198	     -0.49233457	     -6.31064162
      0.05000000	     -2.54290805	     -2.69054457	      7.14261926	      0.08533607	      0.94315250	      1.22453477	      3.39417688	      2.77511134	     -9.65852400	     -9.56142592	      9.04758810	      0.81263262	      3.49516900	     -3.26800120	     -5.57913996	    -12.87240942	     12.83288106	     -3.04313320	     -7.24900335	     -0.50590734	     -6.26114529
      0.06000000	     -2.58974554	     -2.68911039	      7.18753652	      0.08587540	      0.94305119	      1.22495242	      3.36228553	      2.80803128	     -9.69222799	     -9.47624327	      9.06630475	      0.80308971	      3.50832239	     -3.29375580	     -5.54660570	    -12.84908070	     12.84304000	     -3.03220503	     -7.22711518	     -0.51461264	     -6.21620850
      0.07000000	     -2.63026845	     -2.70827882	      7.25425099	      0.08643437	      0.94295115	      1.22535670	      3.30936997	      2.86811736	     -9.72301305	     -9.36276705	      9.07182597	      0.76098630	      3.52061836	     -3.34124356	     -5.45368070	    -12.82998203	     12.87207646	     -2.98665150	     -7.21142560	     -0.49130639	     -6.21995532
      0.08000000	     -2.67248812	     -2.69770782	      7.28965688	      0.08702893	      0.94285277	      1.22579195	      3.27306916	      2.89141182	     -9.76411436	     -9.28656259	      9.08803860	      0.75140380	      3.53007891	     -3.36006438	     -5.44212083	    -12.82142003	     12.88006311	     -2.97319809	     -7.19711029	     -0.50788598	     -6.16219692
      0.09000000	     -2.71436976	     -2.69605712	      7.32737681	      0.08767091	      0.94274819	      1.22622748	      3.22589003	      2.92705089	     -9.79757986	     -9.19388003	      9.11244335	      0.73783438	      3.53446036	     -3.38848177	     -5.41709098	    -12.80759331	     12.89493691	     -2.95274166	     -7.17773304	     -0.51186206	     -6.11701260
      0.10000000	     -2.72982009	     -2.72135769	      7.38614659	      0.08834311	      0.94267064	      1.22664639	      3.13724603	      3.00040406	     -9.81382792	     -9.07583553	      9.12497111	      0.68267326	      3.51551495	     -3.44924623	     -5.34739066	    -12.79608455	     12.94048472	     -2.87980308	     -7.18712431	     -0.47584845	     -6.12445989
      0.11000000	     -2.76824301	     -2.71154283	      7.41261428	      0.08902895	      0.94256678	      1.22708674	      3.09538885	      3.02547580	     -9.85160870	     -9.00616062	      9.14238959	      0.67091185	      3.51462174	     -3.47045185	     -5.34230650	    -12.79079714	     12.94926185	     -2.86207404	     -7.17591533	     -0.48714090	     -6.06773876
      0.12000000	     -2.80428451	     -2.71532463	      7.44221666	      0.08973767	      0.94245845	      1.22753206	      3.04490642	      3.06841716	     -9.87567666	     -8.92423592	      9.17234309	      0.65333775	      3.51186717	     -3.50684865	     -5.32321286	    -12.78537938	     12.96987201	     -2.83498824	     -7.16564020	     -0.48106800	     -6.02511935
      0.13000000	     -2.82253395	     -2.74596365	      7.48317504	      0.09044145	      0.94236290	      1.22799059	      2.97347590	      3.14737611	     -9.88031221	     -8.83222659	      9.19486037	      0.59498322	      3.50443859	     -3.57748862	     -5.27952019	    -12.79811299	     13.02917821	     -2.75649142	     -7.18002326	     -0.43821157	     -6.02195599
      0.14000000	     -2.86269290	     -2.74091006	      7.50354422	      0.09114616	      0.94225088	      1.22847592	      2.94222741	      3.17931018	     -9.91070827	     -8.77744963	      9.21251936	      0.57946308	      3.51312452	     -3.60693784	     -5.26851556	    -12.80894890	     13.04078585	     -2.73477088	     -7.17414848	     -0.44580761	     -5.96761620
      0.15000000	     -2.90019956	     -2.77719835	      7.53389319	      0.09183803	      0.94212078	      1.22898964	      2.90881888	      3.26224891	     -9.91144453	     -8.71276068	      9.24305030	      0.52080164	      3.54283846	     -3.68654446	     -5.23741001	    -12.85015257	     13.10576426	     -2.65758180	     -7.17041678	     -0.40178320	     -5.95544163
      0.16000000	     -2.94076529	     -2.77420730	      7.54548549	      0.09254185	      0.94200422	      1.22952825	      2.88581712	      3.29903120	     -9.93241401	     -8.66970454	      9.26352761	      0.50500795	      3.56199909	     -3.72170263	     -5.21787033	    -12.88089766	     13.12091148	     -2.63600816	     -7.17019366	     -0.40845092	     -5.89917874
      0.17000000	     -2.98492710	     -2.81726222	      7.56464797	      0.09322341	      0.94185175	      1.23009691	      2.87379069	      3.38995779	     -9.91188406	     -8.62672118	      9.30165622	      0.44220931	      3.61589218	     -3.81331427	     -5.19771635	    -12.95231756	     13.20946303	     -2.55610624	     -7.16692457	     -0.35719076	     -5.89375734
      0.18000000	     -3.02113984	     -2.81507869	      7.56813661	      0.09395716	      0.94172949	      1.23067851	      2.85271452	      3.42986949	     -9.91616598	     -8.59971885	      9.32747690	      0.42410300	      3.63989803	     -3.85329474	     -5.16872261	    -13.00525141	     13.22959812	     -2.53196496	     -7.17470776	     -0.36289701	     -5.83869227
      0.19000000	     -3.06365748	     -2.85275021	      7.57485679	      0.09470651	      0.94156132	      1.23129135	      2.84490986	      3.51659157	     -9.87647709	     -8.57740368	      9.38247508	      0.36193796	      3.69160692	     -3.94364361	     -5.16471237	    -13.08813308	     13.33390864	     -2.45326109	     -7.17084361	     -0.31843774	     -5.83599344
      0.20000000	     -3.10248065	     -2.86976438	      7.56842828	      0.09548386	      0.94140297	      1.23191608	      2.83794200	      3.57915718	     -9.84699759	     -8.57009493	      9.43438008	      0.30797701	      3.73289127	     -4.00943401	     -5.14763751	    -13.17250596	     13.39930954	     -2.38742621	     -7.17662832	     -0.29973226	     -5.79830794
      0.21000000	     -3.12871915	     -2.86600764	      7.56296791	      0.09630697	      0.94126838	      1.23253897	      2.81795844	      3.61941122	     -9.82864069	     -8.57602180	      9.47369986	      0.29381413	      3.74719055	     -4.05148192	     -5.11446485	    -13.24087051	     13.42813614	     -2.36683546	     -7.19933349	     -0.30490834	     -5.74923610
